<svg width="13" height="18" viewBox="0 0 13 18" fill="none" xmlns="http://www.w3.org/2000/svg">
<path d="M1.90519 9.2531L6.49909 16L11.093 9.2531C11.6392 8.45042 11.9508 7.51957 11.9946 6.55931C12.0385 5.59906 11.813 4.64523 11.342 3.79902C10.8711 2.95282 10.1723 2.2458 9.31984 1.753C8.46734 1.2602 7.49293 1 6.5 1C5.50707 1 4.53266 1.2602 3.68016 1.753C2.82767 2.2458 2.12888 2.95282 1.65795 3.79902C1.18702 4.64523 0.961518 5.59906 1.00537 6.55931C1.04922 7.51957 1.36078 8.45042 1.907 9.2531H1.90519ZM6.49909 3.58858C7.04855 3.58858 7.58566 3.7463 8.04252 4.0418C8.49937 4.33731 8.85545 4.75732 9.06571 5.24872C9.27598 5.74012 9.33099 6.28085 9.2238 6.80252C9.11661 7.32419 8.85202 7.80338 8.4635 8.17948C8.07498 8.55558 7.57997 8.81171 7.04107 8.91548C6.50218 9.01925 5.94359 8.96599 5.43597 8.76244C4.92834 8.5589 4.49446 8.21421 4.1892 7.77195C3.88394 7.3297 3.721 6.80976 3.721 6.27787C3.72196 5.56491 4.01496 4.88141 4.53575 4.37728C5.05653 3.87314 5.76259 3.58951 6.49909 3.58858V3.58858Z" stroke="white" stroke-width="1.5"/>
</svg>
