<svg width="35" height="33" viewBox="0 0 35 33" fill="none" xmlns="http://www.w3.org/2000/svg">
<path d="M28.9588 9.79823C28.9588 9.48553 28.9588 9.06858 28.9588 8.75587C28.9588 6.46267 27.8047 2.2932 20.1453 0.416946C19.4108 0.208473 18.7813 0.104236 18.4665 0.104236C18.3616 0.104236 18.2567 0.104236 18.2567 0.104236C18.2567 0.104236 17.732 0 17.1025 0C16.473 0 16.0533 0.104236 16.0533 0.104236C16.0533 0.104236 15.9483 0.104236 15.8434 0.104236C15.5286 0.104236 15.004 0.208473 14.1646 0.416946C6.50524 2.2932 5.35109 6.46267 5.35109 8.75587C5.35109 9.06858 5.35109 9.38129 5.35109 9.79823C1.7837 11.2575 0 13.7592 0 16.7821C0 25.3295 3.98709 30.3328 11.8563 31.8964C11.9613 31.8964 12.0662 31.8964 12.276 32.0006H12.3809C12.9056 32.1049 13.5351 32.2091 14.0597 32.2091H14.2696C14.4794 32.2091 14.5843 32.2091 14.7942 32.2091C15.6336 32.3133 16.368 32.3133 17.1025 32.3133C17.837 32.3133 18.6763 32.3133 19.6207 32.2091C19.8305 32.2091 20.1453 32.2091 20.3551 32.1049C20.9847 32.0006 21.5093 32.0006 22.0339 31.8964H22.2437C22.3487 31.8964 22.4536 31.8964 22.5585 31.8964C30.2179 30.3328 34.1001 25.2252 34.1001 16.7821C34.1001 13.7592 32.3164 11.3618 28.9588 9.79823ZM31.6868 16.7821C31.6868 23.4532 28.9588 27.4142 23.5028 29.082C26.7554 21.8897 28.3293 17.0948 28.8539 12.5084C30.6376 13.655 31.6868 15.0101 31.6868 16.7821ZM26.4407 8.65163V9.06858C26.4407 9.90247 26.4407 10.5279 26.3358 11.2575C26.1259 15.1143 25.0767 19.5965 20.7748 28.6651C20.6699 28.9778 20.46 29.2905 20.3551 29.6032C19.9354 29.6032 19.6207 29.7074 19.201 29.7074C17.732 29.8117 16.5779 29.8117 15.2139 29.7074C15.9483 28.1439 16.6828 26.6846 17.3123 25.3295C17.732 24.3914 18.1517 23.4532 18.4665 22.7236C21.6142 15.1143 22.2437 10.9448 22.2437 6.25419C22.2437 5.21183 22.0339 4.2737 21.6142 3.43981C23.9225 4.2737 26.4407 5.83725 26.4407 8.65163ZM17.1025 19.2838C14.6893 12.9253 14.4794 9.58976 14.4794 6.14996C14.4794 4.69064 15.2139 3.43981 16.5779 2.2932C16.9976 2.08473 17.3123 2.08473 17.6271 2.2932C18.9911 3.33557 19.7256 4.58641 19.7256 6.04572C19.7256 9.58976 19.6207 12.9253 17.1025 19.2838ZM15.7385 22.6193C15.004 24.2871 14.1646 26.2676 13.1154 28.2481C9.12833 19.388 8.07909 15.0101 7.86925 11.1533C7.86925 10.5279 7.76432 9.79824 7.76432 8.96434V8.65163C7.76432 5.83725 10.2825 4.2737 12.5908 3.43981C12.276 4.2737 12.0662 5.21183 12.0662 6.25419C12.0662 10.9448 12.5908 15.1143 15.7385 22.6193ZM10.8071 29.082C5.14124 27.5184 2.41324 23.4532 2.41324 16.7821C2.41324 15.0101 3.46247 13.5507 5.45601 12.4041C5.98063 16.9906 7.55448 21.8897 10.8071 29.082Z" fill="#BA6C55"/>
</svg>
