<svg width="102" height="25" viewBox="0 0 102 25" fill="none" xmlns="http://www.w3.org/2000/svg">
<path d="M43.5182 5.96753H45.9722C46.2995 5.96753 46.5449 6.20946 46.5449 6.53205V19.8385C46.5449 20.1611 46.2995 20.403 45.9722 20.403H43.5182C43.191 20.403 42.9456 20.1611 42.9456 19.8385V14.3546H36.0743V19.8385C36.0743 20.1611 35.8289 20.403 35.5017 20.403H33.0477C32.7205 20.403 32.4751 20.1611 32.4751 19.8385V6.53205C32.4751 6.20946 32.7205 5.96753 33.0477 5.96753H35.5017C35.8289 5.96753 36.0743 6.20946 36.0743 6.53205V12.1772H42.9456V6.53205C42.9456 6.20946 43.191 5.96753 43.5182 5.96753Z" fill="#5D3B3A"/>
<path d="M60.7775 20.4841C60.5321 20.4841 60.2867 20.3228 60.2049 20.0808C60.0413 19.6776 58.8961 16.9357 58.6507 16.3712H53.1701C53.0065 16.9357 51.8612 19.6776 51.7794 20.0808C51.6976 20.3228 51.4522 20.4841 51.2068 20.4841H48.9164C48.5074 20.4841 48.262 20.0808 48.3438 19.7583C48.8346 18.3066 49.08 17.6615 49.5708 16.4518C50.1434 15.0002 50.6342 13.6292 51.125 12.3389C51.6158 11.0486 52.1884 9.83891 52.6792 8.70987C53.17 7.66149 53.2519 7.33891 53.7427 6.37117C53.8245 6.20987 54.0699 6.04858 54.2335 6.04858H57.5873C57.8327 6.04858 57.9963 6.20987 58.0781 6.37117C58.5689 7.33891 58.7325 7.74213 59.1415 8.70987C59.6323 9.83891 60.2049 11.0486 60.6957 12.3389C61.1865 13.6292 61.7591 15.0002 62.25 16.4518C62.7408 17.6615 62.9862 18.3066 63.477 19.7583C63.6406 20.1615 63.3134 20.4841 62.9044 20.4841H60.7775ZM56.1149 9.27439C56.0331 9.1131 55.8695 9.1131 55.7877 9.27439C55.7059 9.43568 55.6241 9.59697 55.6241 9.83891C55.4605 10.2421 55.2969 10.726 55.1333 11.2099C54.9697 11.6937 54.7243 12.3389 54.4789 12.9034C54.2335 13.5486 54.2335 13.6292 53.9063 14.2744H58.0781C57.8327 13.5486 57.7509 13.4679 57.5873 12.8228C57.3419 12.1776 57.1783 11.6131 56.9329 11.1292C56.6875 10.6454 56.5239 10.1615 56.3603 9.75826C56.1967 9.59697 56.1149 9.43568 56.1149 9.27439Z" fill="#5D3B3A"/>
<path d="M84.9894 20.4837H66.1751C65.8479 20.4837 65.6025 20.2417 65.6025 19.9191V6.53205C65.6025 6.20946 65.8479 5.96753 66.1751 5.96753H68.6292C68.9564 5.96753 69.2018 6.20946 69.2018 6.53205V17.5804C69.2018 17.903 69.4472 18.2256 69.8562 18.2256H73.7826V6.53205C73.7826 6.20946 74.028 5.96753 74.3552 5.96753H76.8093C77.1365 5.96753 77.3819 6.20946 77.3819 6.53205V18.2256H81.8809V6.53205C81.8809 6.20946 82.1263 5.96753 82.4535 5.96753H84.9076C85.2348 5.96753 85.4802 6.20946 85.4802 6.53205V19.8385C85.562 20.1611 85.3166 20.4837 84.9894 20.4837Z" fill="#5D3B3A"/>
<path d="M88.9165 19.8385V6.53205C88.9165 6.20946 89.1619 5.96753 89.4891 5.96753H100.778C101.105 5.96753 101.35 6.20946 101.35 6.53205V7.58043C101.35 7.90301 101.105 8.14495 100.778 8.14495H92.843C92.5157 8.14495 92.2703 8.38688 92.2703 8.70946V12.1772H99.2234C99.5506 12.1772 99.796 12.4191 99.796 12.7417V13.7095C99.796 14.032 99.5506 14.274 99.2234 14.274H92.2703V17.6611C92.2703 17.9837 92.5157 18.2256 92.843 18.2256H100.778C101.105 18.2256 101.35 18.4675 101.35 18.7901V19.8385C101.35 20.1611 101.105 20.403 100.778 20.403H89.4891C89.2437 20.4837 88.9165 20.1611 88.9165 19.8385Z" fill="#5D3B3A"/>
<path d="M22.5771 7.58064C22.5771 7.33871 22.5771 7.01613 22.5771 6.77419C22.5771 5 21.6772 1.77419 15.7058 0.322581C15.1332 0.16129 14.6424 0.0806451 14.397 0.0806451C14.3152 0.0806451 14.2334 0.0806451 14.2334 0.0806451C14.2334 0.0806451 13.8244 0 13.3335 0C12.8427 0 12.5155 0.0806451 12.5155 0.0806451C12.5155 0.0806451 12.4337 0.0806451 12.3519 0.0806451C12.1065 0.0806451 11.6975 0.16129 11.0431 0.322581C5.07166 1.77419 4.17185 5 4.17185 6.77419C4.17185 7.01613 4.17185 7.25806 4.17185 7.58064C1.39061 8.70968 0 10.6452 0 12.9839C0 19.5968 3.10843 23.4677 9.2435 24.6774C9.3253 24.6774 9.4071 24.6774 9.57071 24.7581H9.65251C10.0615 24.8387 10.5523 24.9194 10.9613 24.9194H11.1249C11.2885 24.9194 11.3703 24.9194 11.5339 24.9194C12.1883 25 12.7609 25 13.3335 25C13.9062 25 14.5606 25 15.2968 24.9194C15.4604 24.9194 15.7058 24.9194 15.8694 24.8387C16.3602 24.7581 16.7692 24.7581 17.1782 24.6774H17.3418C17.4236 24.6774 17.5054 24.6774 17.5872 24.6774C23.5587 23.4677 26.5853 19.5161 26.5853 12.9839C26.5853 10.6452 25.1947 8.79032 22.5771 7.58064ZM24.7039 12.9839C24.7039 18.1452 22.5771 21.2097 18.3234 22.5C20.8592 16.9355 22.0862 13.2258 22.4953 9.67742C23.8859 10.5645 24.7039 11.6129 24.7039 12.9839ZM20.6138 6.69355V7.01613C20.6138 7.66129 20.6138 8.14516 20.532 8.70968C20.3684 11.6935 19.5504 15.1613 16.1966 22.1774C16.1148 22.4194 15.9512 22.6613 15.8694 22.9032C15.5422 22.9032 15.2968 22.9839 14.9696 22.9839C13.8244 23.0645 12.9245 23.0645 11.8611 22.9839C12.4337 21.7742 13.0063 20.6452 13.4972 19.5968C13.8244 18.871 14.1516 18.1452 14.397 17.5806C16.851 11.6935 17.3418 8.46774 17.3418 4.83871C17.3418 4.03226 17.1782 3.30645 16.851 2.66129C18.6506 3.30645 20.6138 4.51613 20.6138 6.69355ZM13.3335 14.9194C11.4521 10 11.2885 7.41935 11.2885 4.75806C11.2885 3.62903 11.8611 2.66129 12.9245 1.77419C13.2517 1.6129 13.4972 1.6129 13.7426 1.77419C14.806 2.58064 15.3786 3.54839 15.3786 4.67742C15.3786 7.41935 15.2968 10 13.3335 14.9194ZM12.2701 17.5C11.6975 18.7903 11.0431 20.3226 10.2251 21.8548C7.11668 15 6.29867 11.6129 6.13507 8.62903C6.13507 8.14516 6.05327 7.58065 6.05327 6.93548V6.69355C6.05327 4.51613 8.01649 3.30645 9.81611 2.66129C9.57071 3.30645 9.4071 4.03226 9.4071 4.83871C9.4071 8.46774 9.81611 11.6935 12.2701 17.5ZM8.42549 22.5C4.00824 21.2903 1.88142 18.1452 1.88142 12.9839C1.88142 11.6129 2.69943 10.4839 4.25365 9.59677C4.66265 13.1452 5.88967 16.9355 8.42549 22.5Z" fill="#BA6C55"/>
</svg>
