<svg width="60" height="61" viewBox="0 0 60 61" fill="none" xmlns="http://www.w3.org/2000/svg">
<path d="M44.4578 12.0482C44.4578 11.6265 44.4578 11.1446 44.4578 10.7229C44.4578 7.89157 43.0722 2.89157 33.7349 0.54217C32.771 0.301206 32.0481 0.180726 31.6867 0.120485C31.5662 0.120485 31.4457 0.06024 31.4457 0.06024C31.4457 0.06024 30.7831 0 29.9999 0C29.2168 0 28.7349 0.06024 28.7349 0.06024C28.6746 0.06024 28.6144 0.0602437 28.4939 0.120485C28.1325 0.180726 27.4096 0.301206 26.506 0.54217C17.1686 2.83133 15.7228 7.89157 15.7228 10.7229C15.7228 11.1446 15.7228 11.5663 15.7228 11.9277C11.506 13.9157 9.2168 16.9277 9.2168 20.6627C9.2168 31.0843 14.0361 37.2892 23.5541 39.0964C23.6746 39.0964 23.8553 39.1566 24.0361 39.1566H24.2168C24.8794 39.2771 25.5421 39.3373 26.265 39.4578H26.5662C26.8072 39.4578 26.9879 39.5181 27.2288 39.5181C28.1927 39.5783 29.0963 39.6386 29.9999 39.6386C30.9638 39.6386 31.9276 39.5783 33.012 39.5181C33.3132 39.5181 33.6144 39.4578 33.9156 39.4578H33.9758C34.6987 39.3976 35.3614 39.2771 36.0843 39.1566L36.3252 39.0964C36.4457 39.0964 36.5662 39.0361 36.6867 39.0361C46.024 37.1687 50.7831 30.9639 50.7831 20.6627C50.7831 16.988 48.6144 14.0361 44.4578 12.0482ZM47.771 20.6627C47.771 28.7952 44.518 33.6747 37.8313 35.6626C41.8072 26.8675 43.7349 20.9639 44.277 15.3614C46.5662 16.747 47.771 18.5542 47.771 20.6627ZM41.506 10.7229V11.2048C41.506 12.2289 41.4457 13.0723 41.4457 13.8554C41.1445 18.5542 39.8794 23.9759 34.759 35.1807C34.5782 35.6024 34.3975 35.9639 34.2168 36.3855C33.7951 36.4458 33.3132 36.4458 32.8313 36.506C31.024 36.6265 29.6385 36.6265 27.9517 36.5663C28.8553 34.6386 29.6987 32.8313 30.4216 31.1446C30.9638 30 31.3855 28.9157 31.8072 27.8916C35.6023 18.6145 36.3252 13.494 36.3252 7.77108C36.3252 6.56627 36.0843 5.36144 35.5421 4.27711C38.3734 5.36144 41.506 7.3494 41.506 10.7229ZM30.1204 23.7952C27.1686 15.9639 26.9276 11.9277 26.9276 7.77108C26.9276 5.96386 27.771 4.39759 29.518 3.13253C29.9999 2.83133 30.3614 2.83133 30.7831 3.13253C32.4698 4.39759 33.3132 5.96386 33.3132 7.77108C33.3132 11.8675 33.0722 15.9639 30.1204 23.7952ZM28.4939 27.8313C27.5903 29.9398 26.5662 32.2289 25.3614 34.759C20.3614 23.7952 19.1566 18.4337 18.8554 13.7952C18.7951 12.9518 18.7951 12.1084 18.7951 11.1446V10.7229C18.7951 7.3494 21.8674 5.36144 24.6987 4.27711C24.2168 5.36144 23.9156 6.50603 23.9156 7.71084C23.9156 13.4337 24.6385 18.5542 28.4939 27.8313ZM22.4698 35.7229C15.6023 33.7952 12.2288 28.8554 12.2288 20.6627C12.2288 18.494 13.4939 16.6867 15.9638 15.241C16.506 20.8434 18.4337 26.8675 22.4698 35.7229Z" fill="#BA6C55"/>
<path d="M9.63855 47.771H11.747C12.0482 47.771 12.2289 48.012 12.2289 48.2529V59.9999C12.2289 60.3011 11.988 60.4818 11.747 60.4818H9.63855C9.33735 60.4818 9.15663 60.2409 9.15663 59.9999V55.1806H3.19277V59.9999C3.19277 60.3011 2.95181 60.4818 2.71084 60.4818H0.481928C0.180723 60.5421 0 60.3011 0 60.0602V48.3132C0 48.012 0.240964 47.8312 0.481928 47.8312H2.59036C2.89157 47.8312 3.07229 48.0722 3.07229 48.3132V53.2529H9.03614V48.3132C9.09639 47.9517 9.33735 47.771 9.63855 47.771Z" fill="#5D3B3A"/>
<path d="M24.6387 60.5421C24.3977 60.5421 24.217 60.4217 24.1568 60.1807C24.0363 59.8193 23.0122 57.4096 22.8315 56.9277H18.0122C17.8315 57.4096 16.9278 59.8193 16.8074 60.2409C16.7471 60.4217 16.5664 60.6024 16.3254 60.6024H14.3375C13.976 60.6024 13.7351 60.2409 13.8556 59.9397C14.2772 58.6747 14.5182 58.1325 14.8797 57.0482C15.3616 55.7831 15.7833 54.5783 16.2652 53.4337C16.6869 52.2891 17.1688 51.2048 17.5905 50.2409C18.0122 49.3373 18.0724 49.0361 18.4941 48.1325C18.5544 47.9518 18.7351 47.8313 18.976 47.8313H21.9278C22.1086 47.8313 22.2893 47.9518 22.4098 48.1325C22.8315 49.0361 22.9519 49.3373 23.3736 50.2409C23.7953 51.265 24.2772 52.3494 24.6989 53.4337C25.1809 54.5783 25.6025 55.7831 26.0845 57.0482C26.5062 58.1325 26.6869 58.7349 27.1086 59.9397C27.2291 60.2409 26.9881 60.6024 26.6266 60.6024L24.6387 60.5421ZM20.6025 50.6626C20.5423 50.5421 20.3616 50.5421 20.3013 50.6626C20.2411 50.7831 20.1809 50.9638 20.1206 51.1446C20.0001 51.506 19.8194 51.8674 19.6387 52.3494C19.458 52.8313 19.2772 53.3132 19.0363 53.8554C18.7953 54.3976 18.7953 54.518 18.5544 55.1205H22.2291C21.9881 54.518 21.9881 54.3976 21.7471 53.8554C21.5664 53.3132 21.3857 52.7711 21.205 52.3494C21.0242 51.8674 20.8435 51.506 20.723 51.1446C20.723 50.9638 20.6025 50.8433 20.6025 50.6626Z" fill="#5D3B3A"/>
<path d="M45.6026 60.542H29.2773C28.9761 60.542 28.7954 60.3011 28.7954 60.0601V48.2529C28.7954 47.9517 29.0364 47.7709 29.2773 47.7709H31.446C31.7472 47.7709 31.9279 48.0119 31.9279 48.2529V58.0119C31.9279 58.3131 32.1689 58.5541 32.4701 58.5541H35.9038V48.1926C35.9038 47.8914 36.1448 47.7107 36.3858 47.7107H38.5544C38.8556 47.7107 39.0364 47.9517 39.0364 48.1926V58.5541H43.0123V48.1926C43.0123 47.8914 43.2532 47.7107 43.4942 47.7107H45.6629C45.9641 47.7107 46.1448 47.9517 46.1448 48.1926V59.9999C46.1448 60.3011 45.9038 60.542 45.6026 60.542Z" fill="#5D3B3A"/>
<path d="M49.1567 59.9999V48.2529C49.1567 47.9517 49.3977 47.771 49.6387 47.771H59.4579C59.7591 47.771 59.9399 48.012 59.9399 48.2529V49.1565C59.9399 49.4577 59.6989 49.6385 59.4579 49.6385H52.6507C52.3495 49.6385 52.1688 49.8794 52.1688 50.1204V53.1927H58.2531C58.5543 53.1927 58.735 53.4336 58.735 53.6746V54.518C58.735 54.8192 58.4941 54.9999 58.2531 54.9999H52.1688V57.9517C52.1688 58.2529 52.4097 58.4336 52.6507 58.4336H59.5182C59.8194 58.4336 60.0001 58.6746 60.0001 58.9156V59.8192C60.0001 60.1204 59.7591 60.3011 59.5182 60.3011H49.6989C49.3977 60.5421 49.1567 60.3011 49.1567 59.9999Z" fill="#5D3B3A"/>
</svg>
