<svg width="17" height="16" viewBox="0 0 17 16" fill="none" xmlns="http://www.w3.org/2000/svg">
<path d="M5.66673 13.4582L0 7.7915L1.00172 6.78977L5.66673 11.4548L15.9982 1.12305L17 2.12477L5.66673 13.4582Z" fill="#BA6C55"/>
<path d="M5.66673 13.4582L0 7.7915L1.00172 6.78977L5.66673 11.4548L15.9982 1.12305L17 2.12477L5.66673 13.4582Z" stroke="#BA6C55"/>
<path d="M14.1665 9.9165C12.6018 9.9165 11.333 11.1851 11.333 12.7498C11.333 14.3144 12.6018 15.5832 14.1665 15.5832C15.7311 15.5832 16.9997 14.3144 16.9997 12.7498C16.9997 11.1851 15.7311 9.9165 14.1665 9.9165ZM14.1665 14.1665C13.3841 14.1665 12.7497 13.5322 12.7497 12.7498C12.7497 11.9673 13.3841 11.3332 14.1665 11.3332C14.9489 11.3332 15.583 11.9673 15.583 12.7498C15.583 13.5322 14.9489 14.1665 14.1665 14.1665Z" fill="#BA6C55"/>
<path d="M14.1665 9.9165C12.6018 9.9165 11.333 11.1851 11.333 12.7498C11.333 14.3144 12.6018 15.5832 14.1665 15.5832C15.7311 15.5832 16.9997 14.3144 16.9997 12.7498C16.9997 11.1851 15.7311 9.9165 14.1665 9.9165ZM14.1665 14.1665C13.3841 14.1665 12.7497 13.5322 12.7497 12.7498C12.7497 11.9673 13.3841 11.3332 14.1665 11.3332C14.9489 11.3332 15.583 11.9673 15.583 12.7498C15.583 13.5322 14.9489 14.1665 14.1665 14.1665Z" stroke="#BA6C55"/>
<path d="M6.37525 0C4.81061 0 3.54199 1.26862 3.54199 2.83326C3.54199 4.39789 4.81061 5.66673 6.37525 5.66673C7.93988 5.66673 9.20851 4.39789 9.20851 2.83326C9.20851 1.26862 7.93988 0 6.37525 0ZM6.37525 4.24999C5.59283 4.24999 4.95851 3.61568 4.95851 2.83326C4.95851 2.05083 5.59283 1.41673 6.37525 1.41673C7.15767 1.41673 7.79198 2.05083 7.79198 2.83326C7.79198 3.61568 7.15767 4.24999 6.37525 4.24999Z" fill="#BA6C55"/>
<path d="M6.37525 0C4.81061 0 3.54199 1.26862 3.54199 2.83326C3.54199 4.39789 4.81061 5.66673 6.37525 5.66673C7.93988 5.66673 9.20851 4.39789 9.20851 2.83326C9.20851 1.26862 7.93988 0 6.37525 0ZM6.37525 4.24999C5.59283 4.24999 4.95851 3.61568 4.95851 2.83326C4.95851 2.05083 5.59283 1.41673 6.37525 1.41673C7.15767 1.41673 7.79198 2.05083 7.79198 2.83326C7.79198 3.61568 7.15767 4.24999 6.37525 4.24999Z" stroke="#BA6C55"/>
</svg>
