<svg width="23" height="22" viewBox="0 0 23 22" fill="none" xmlns="http://www.w3.org/2000/svg">
<path d="M11.5287 22L1.86875 11.7083C0.66125 10.4074 0 8.73062 0 6.96715C0 3.12221 3.105 0 6.92875 0C8.625 0 10.235 0.636005 11.5 1.73456C12.765 0.607096 14.375 0 16.0713 0C19.895 0 23 3.12221 23 6.96715C23 8.73062 22.3387 10.4363 21.1313 11.7372L11.5287 22ZM6.9575 1.73456C4.0825 1.73456 1.75375 4.07622 1.75375 6.96715C1.75375 8.29698 2.2425 9.56899 3.1625 10.523L11.5287 19.4271L19.895 10.4941C20.815 9.54008 21.3037 8.29698 21.3037 6.96715C21.3037 4.07622 18.975 1.73456 16.1 1.73456C14.605 1.73456 13.1675 2.39947 12.19 3.52694L11.5287 4.30749L10.8675 3.55585C9.89 2.39947 8.4525 1.73456 6.9575 1.73456Z" fill="#4C363B"/>
</svg>
