<svg width="25" height="25" viewBox="0 0 25 25" fill="none" xmlns="http://www.w3.org/2000/svg">
<path d="M23.2024 24.1129L23.2027 24.1131C23.4519 24.3622 23.8638 24.3623 24.113 24.1131L24.1131 24.1131C24.3622 23.8638 24.3623 23.4625 24.1131 23.2132L19.539 18.6392C21.2309 16.7354 22.267 14.2295 22.267 11.4835C22.267 5.53193 17.435 0.7 11.4835 0.7C5.53196 0.7 0.7 5.53193 0.7 11.4835C0.7 17.435 5.53196 22.267 11.4835 22.267C14.2317 22.267 16.7438 21.2454 18.6496 19.5499L23.2024 24.1129ZM11.4835 1.97635C16.7381 1.97635 20.9906 6.22884 20.9906 11.4835C20.9906 16.7381 16.7381 20.9906 11.4835 20.9906C6.22886 20.9906 1.97634 16.7381 1.97634 11.4835C1.97634 6.22884 6.22886 1.97635 11.4835 1.97635Z" fill="#5D3B3A" stroke="#5D3B3A" stroke-width="0.6"/>
</svg>
