<svg width="22" height="25" viewBox="0 0 22 25" fill="none" xmlns="http://www.w3.org/2000/svg">
<path d="M11.1548 12.8022C14.4625 12.8022 17.1461 10.1186 17.1461 6.81088C17.1461 3.50213 14.4615 0.85 11.1548 0.85C7.84705 0.85 5.16348 3.53358 5.16348 6.84131C5.16348 10.1501 7.84808 12.8022 11.1548 12.8022ZM11.1548 2.27567C13.6579 2.27567 15.69 4.30773 15.69 6.81088C15.69 9.31404 13.6579 11.3461 11.1548 11.3461C8.65163 11.3461 6.61957 9.31404 6.61957 6.81088C6.61957 4.30773 8.65163 2.27567 11.1548 2.27567Z" fill="#5D3B3A" stroke="#5D3B3A" stroke-width="0.3"/>
<path d="M2.48221 24C2.48221 21.9379 3.22915 19.9639 4.54601 18.3772C5.83182 16.8825 7.5655 15.8661 9.50877 15.4769C10.05 15.3868 10.6186 15.3272 11.155 15.3272C15.9399 15.3272 19.8278 19.2151 19.8278 24V24.15H19.9778H21.1339H21.2839V24C21.2839 18.4406 16.7442 13.9015 11.155 13.9015C10.507 13.9015 9.85842 13.9632 9.23993 14.0869C6.98518 14.5194 4.9475 15.7238 3.46569 17.4526L3.46514 17.4532C1.92132 19.2749 1.05654 21.591 1.05654 24V24.15H1.20654H2.33221H2.48221V24Z" fill="#5D3B3A" stroke="#5D3B3A" stroke-width="0.3"/>
</svg>
