<svg width="22" height="25" viewBox="0 0 22 25" fill="none" xmlns="http://www.w3.org/2000/svg">
<path d="M11.1558 12.8022C14.4635 12.8022 17.1471 10.1186 17.1471 6.81088C17.1471 3.50213 14.4625 0.85 11.1558 0.85C7.84803 0.85 5.16445 3.53358 5.16445 6.84131C5.16445 10.1501 7.84905 12.8022 11.1558 12.8022ZM11.1558 2.27567C13.6589 2.27567 15.691 4.30773 15.691 6.81088C15.691 9.31404 13.6589 11.3461 11.1558 11.3461C8.65261 11.3461 6.62055 9.31404 6.62055 6.81088C6.62055 4.30773 8.65261 2.27567 11.1558 2.27567Z" fill="white" stroke="white" stroke-width="0.3"/>
<path d="M2.4827 24C2.4827 21.9379 3.22964 19.9639 4.5465 18.3772C5.83231 16.8825 7.56599 15.8661 9.50926 15.4769C10.0505 15.3868 10.6191 15.3272 11.1555 15.3272C15.9404 15.3272 19.8283 19.2151 19.8283 24V24.15H19.9783H21.1344H21.2844V24C21.2844 18.4406 16.7447 13.9015 11.1555 13.9015C10.5075 13.9015 9.85891 13.9632 9.24042 14.0869C6.98567 14.5194 4.94799 15.7238 3.46617 17.4526L3.46563 17.4532C1.92181 19.2749 1.05703 21.591 1.05703 24V24.15H1.20703H2.3327H2.4827V24Z" fill="white" stroke="white" stroke-width="0.3"/>
</svg>
